<?xml version="1.0" encoding="UTF-8" ?>
<!DOCTYPE svg PUBLIC "-//W3C//DTD SVG 1.1//EN" "http://www.w3.org/Graphics/SVG/1.1/DTD/svg11.dtd">
<svg width="150pt" height="261pt" viewBox="0 0 150 261" version="1.1" xmlns="http://www.w3.org/2000/svg">
<g id="#ff8355ff">
<path fill="#ff8355" opacity="1.00" d=" M 71.71 0.00 L 77.95 0.00 C 96.14 0.78 113.97 8.28 127.03 21.00 C 140.86 34.19 149.15 52.81 150.00 71.88 L 150.00 76.87 C 148.85 90.24 144.21 102.97 139.51 115.42 C 129.70 140.38 117.65 164.38 105.16 188.09 C 95.63 205.96 85.83 223.69 75.49 241.11 C 75.25 237.74 74.90 234.37 74.97 230.99 C 75.10 204.75 74.90 178.51 74.89 152.28 C 75.10 142.53 74.99 132.79 74.77 123.04 C 83.35 121.85 92.49 120.98 99.75 115.76 C 106.61 110.89 112.90 104.62 116.10 96.72 C 118.61 90.53 120.75 84.07 121.04 77.35 C 121.03 74.68 120.88 71.99 120.51 69.34 C 119.86 65.49 118.95 61.65 117.40 58.05 C 115.88 54.64 114.04 51.37 111.81 48.38 C 109.45 45.36 106.83 42.51 103.79 40.16 C 95.94 33.87 86.07 30.13 75.99 29.99 C 65.25 29.67 54.55 33.45 46.19 40.16 C 43.15 42.52 40.52 45.35 38.16 48.38 C 36.97 49.95 35.90 51.61 34.92 53.32 C 28.48 51.40 22.50 48.29 16.32 45.70 C 13.40 44.47 10.74 42.74 8.13 40.96 C 19.99 17.23 45.17 0.97 71.71 0.00 Z" />
</g>
<g id="#ab5738ff">
<path fill="#ab5738" opacity="1.00" d=" M 46.19 40.16 C 54.55 33.45 65.25 29.67 75.99 29.99 C 86.07 30.13 95.94 33.87 103.79 40.16 C 101.91 41.12 100.11 42.39 97.97 42.69 C 90.25 43.47 82.69 41.02 74.98 41.10 C 67.60 40.91 60.40 43.26 53.01 42.93 C 50.47 42.86 48.35 41.30 46.19 40.16 Z" />
</g>
<g id="#ba5f3dff">
<path fill="#ba5f3d" opacity="1.00" d=" M 38.16 48.38 C 40.52 45.35 43.15 42.52 46.19 40.16 C 48.35 41.30 50.47 42.86 53.01 42.93 C 60.40 43.26 67.60 40.91 74.98 41.10 C 82.69 41.02 90.25 43.47 97.97 42.69 C 100.11 42.39 101.91 41.12 103.79 40.16 C 106.83 42.51 109.45 45.36 111.81 48.38 C 109.76 49.68 107.67 51.53 105.05 51.15 C 100.44 50.59 95.93 49.38 91.39 48.41 C 81.42 42.57 68.51 42.56 58.56 48.45 C 54.04 49.44 49.55 50.63 44.96 51.16 C 42.33 51.50 40.23 49.66 38.16 48.38 Z" />
</g>
<g id="#f77f52ff">
<path fill="#f77f52" opacity="1.00" d=" M 0.04 71.02 C 0.68 60.59 3.35 50.27 8.13 40.96 C 10.74 42.74 13.40 44.47 16.32 45.70 C 22.50 48.29 28.48 51.40 34.92 53.32 C 34.08 54.88 33.34 56.49 32.64 58.11 C 31.13 61.73 30.10 65.52 29.34 69.36 C 28.29 75.04 29.29 80.79 30.15 86.42 C 23.26 82.11 15.87 78.67 8.29 75.76 C 5.28 74.67 2.61 72.90 0.04 71.02 Z" />
</g>
<g id="#ffffffff">
<path fill="#ffffff" opacity="1.00" d=" M 58.56 48.45 C 68.51 42.56 81.42 42.57 91.39 48.41 C 95.80 51.29 99.76 54.96 102.46 59.52 C 104.23 62.58 105.57 65.89 106.35 69.35 C 106.79 71.93 107.00 74.55 107.02 77.16 C 106.68 83.68 104.51 90.11 100.54 95.31 C 94.54 103.13 84.90 108.10 75.00 108.00 C 64.61 108.11 54.54 102.63 48.61 94.16 C 43.62 87.02 41.96 77.86 43.66 69.35 C 44.43 65.89 45.78 62.58 47.54 59.52 C 50.23 54.98 54.17 51.32 58.56 48.45 Z" />
</g>
<g id="#c86642ff">
<path fill="#c86642" opacity="1.00" d=" M 34.92 53.32 C 35.90 51.61 36.97 49.95 38.16 48.38 C 40.23 49.66 42.33 51.50 44.96 51.16 C 49.55 50.63 54.04 49.44 58.56 48.45 C 54.17 51.32 50.23 54.98 47.54 59.52 C 43.01 60.53 38.36 61.56 33.71 60.75 C 33.44 60.09 32.91 58.77 32.64 58.11 C 33.34 56.49 34.08 54.88 34.92 53.32 Z" />
<path fill="#c86642" opacity="1.00" d=" M 91.39 48.41 C 95.93 49.38 100.44 50.59 105.05 51.15 C 107.67 51.53 109.76 49.68 111.81 48.38 C 114.04 51.37 115.88 54.64 117.40 58.05 C 117.14 58.71 116.60 60.04 116.34 60.71 C 111.68 61.63 107.00 60.54 102.46 59.52 C 99.76 54.96 95.80 51.29 91.39 48.41 Z" />
</g>
<g id="#d86e47ff">
<path fill="#d86e47" opacity="1.00" d=" M 29.34 69.36 C 30.10 65.52 31.13 61.73 32.64 58.11 C 32.91 58.77 33.44 60.09 33.71 60.75 C 38.36 61.56 43.01 60.53 47.54 59.52 C 45.78 62.58 44.43 65.89 43.66 69.35 C 38.94 70.29 34.01 70.99 29.34 69.36 Z" />
<path fill="#d86e47" opacity="1.00" d=" M 117.40 58.05 C 118.95 61.65 119.86 65.49 120.51 69.34 C 115.81 70.00 111.05 69.98 106.35 69.35 C 105.57 65.89 104.23 62.58 102.46 59.52 C 107.00 60.54 111.68 61.63 116.34 60.71 C 116.60 60.04 117.14 58.71 117.40 58.05 Z" />
</g>
<g id="#ed7a4fff">
<path fill="#ed7a4f" opacity="1.00" d=" M 30.15 86.42 C 29.29 80.79 28.29 75.04 29.34 69.36 C 34.01 70.99 38.94 70.29 43.66 69.35 C 41.96 77.86 43.62 87.02 48.61 94.16 C 43.35 94.37 38.05 94.17 32.85 95.15 C 39.25 111.92 57.00 123.16 74.77 123.04 C 74.99 132.79 75.10 142.53 74.89 152.28 C 63.51 147.22 52.15 142.12 40.70 137.24 C 32.20 133.16 23.55 129.42 14.76 126.02 C 8.36 110.28 1.69 94.24 0.00 77.17 L 0.00 72.14 L 0.04 71.02 C 2.61 72.90 5.28 74.67 8.29 75.76 C 15.87 78.67 23.26 82.11 30.15 86.42 Z" />
</g>
<g id="#e5754bff">
<path fill="#e5754b" opacity="1.00" d=" M 106.35 69.35 C 111.05 69.98 115.81 70.00 120.51 69.34 C 120.88 71.99 121.03 74.68 121.04 77.35 C 116.40 78.30 111.64 78.21 107.02 77.16 C 107.00 74.55 106.79 71.93 106.35 69.35 Z" />
</g>
<g id="#ee7d54ff">
<path fill="#ee7d54" opacity="1.00" d=" M 107.02 77.16 C 111.64 78.21 116.40 78.30 121.04 77.35 C 120.75 84.07 118.61 90.53 116.10 96.72 C 111.05 95.26 105.76 95.15 100.54 95.31 C 104.51 90.11 106.68 83.68 107.02 77.16 Z" />
</g>
<g id="#ef8964ff">
<path fill="#ef8964" opacity="1.00" d=" M 32.85 95.15 C 38.05 94.17 43.35 94.37 48.61 94.16 C 54.54 102.63 64.61 108.11 75.00 108.00 C 84.90 108.10 94.54 103.13 100.54 95.31 C 105.76 95.15 111.05 95.26 116.10 96.72 C 112.90 104.62 106.61 110.89 99.75 115.76 C 92.49 120.98 83.35 121.85 74.77 123.04 C 57.00 123.16 39.25 111.92 32.85 95.15 Z" />
</g>
<g id="#e3744bff">
<path fill="#e3744b" opacity="1.00" d=" M 14.76 126.02 C 23.55 129.42 32.20 133.16 40.70 137.24 C 52.15 142.12 63.51 147.22 74.89 152.28 C 74.90 178.51 75.10 204.75 74.97 230.99 C 74.90 234.37 75.25 237.74 75.49 241.11 C 75.38 241.36 75.16 241.85 75.05 242.09 C 53.10 204.42 32.00 166.12 14.76 126.02 Z" />
</g>
</svg>
